<?xml version="1.0" encoding="utf-8"?>
<svg version="1.1" id="Flower" x="0px" y="0px" viewBox="0 0 792 792" style="enable-background:new 0 0 792 792;" xmlns="http://www.w3.org/2000/svg" xmlns:bx="https://boxy-svg.com">
  <defs/>
  <style type="text/css">
	.st0{fill:#FA2921;}
	.st1{fill:#ED79B5;}
	.st2{fill:#FFB400;}
	.st3{fill:#1E83F7;}
	.st4{fill:#18C249;}
</style>
  <path class="st0" d="M 465.3 373.05 C 445.26 338.5 414.12 301.84 375.48 267.63 C 372.95 265.391 370.407 263.18 367.853 261 L 511.653 261 C 501.589 297.241 485.39 337.12 465.3 373.05 Z"/>
  <path class="st1" d="M 395.73 322.18 C 356.68 330.55 312.19 348.84 267.71 375.02 C 243.521 389.264 220.926 405.013 201.5 420.962 L 201.5 269 C 201.5 264.582 205.082 261 209.5 261 L 328.147 261 C 351.628 278.825 375.036 299.823 395.73 322.18 Z"/>
  <path class="st2" d="M 438.42 454.95 C 465.09 425.22 490.34 384.27 510.93 336.95 C 522.11 311.258 531.119 285.283 537.458 261 L 582.5 261 C 586.918 261 590.5 264.582 590.5 269 L 590.5 461.804 C 546.883 467.414 490.524 465.283 438.42 454.95 Z"/>
  <path class="st3" d="M 325.84 372.63 C 321.74 412.35 325.39 460.32 336.54 510.71 C 338.053 517.548 339.686 524.322 341.428 531 L 209.5 531 C 205.082 531 201.5 527.418 201.5 523 L 201.5 453.937 C 233.395 424.546 278.967 394.277 325.84 372.63 Z"/>
  <path class="st4" d="M 352.22 454.68 C 388.74 470.86 435.48 482.22 486.85 487.18 C 523.659 490.739 559.766 490.546 590.5 486.915 L 590.5 523 C 590.5 527.418 586.918 531 582.5 531 L 367.224 531 C 360.498 506.436 355.277 480.378 352.22 454.68 Z"/>
  <rect style="fill: none; stroke-width: 20px; stroke: rgb(190, 190, 190);" x="176" y="236" width="440" height="320" rx="20" ry="20"/>
  <path style="fill: rgb(190, 190, 190);" d="M 221 558.442 H 246 V 580.942 A 12.5 12.5 0 0 1 233.5 593.442 H 233.5 A 12.5 12.5 0 0 1 221 580.942 V 558.442 Z" bx:shape="rect 221 558.442 25 35 0 0 12.5 12.5 1@5cb33813"/>
  <path style="fill: rgb(190, 190, 190);" d="M 546 558.442 H 571 V 580.942 A 12.5 12.5 0 0 1 558.5 593.442 H 558.5 A 12.5 12.5 0 0 1 546 580.942 V 558.442 Z" bx:shape="rect 546 558.442 25 35 0 0 12.5 12.5 1@ce2f2674"/>
</svg>