<?xml version="1.0" encoding="utf-8"?>
<!-- Generator: Adobe Illustrator 16.0.4, SVG Export Plug-In . SVG Version: 6.00 Build 0)  -->
<!DOCTYPE svg PUBLIC "-//W3C//DTD SVG 1.0//EN" "http://www.w3.org/TR/2001/REC-SVG-20010904/DTD/svg10.dtd">
<svg version="1.0" id="Layer_1" xmlns="http://www.w3.org/2000/svg" xmlns:xlink="http://www.w3.org/1999/xlink" x="0px" y="0px"
	 width="90px" height="90px" viewBox="0 0 90 90" style="enable-background:new 0 0 90 90;" xml:space="preserve">
<g>
	<circle style="fill:#C6C5A3;" cx="45" cy="45" r="35"/>
	<path style="fill:#D1D1B0;" d="M44.999,10c-6.919,0-13.364,2.016-18.793,5.48c-3.464,5.429-5.479,11.874-5.479,18.793
		c0,19.33,15.668,34.999,35.001,34.999c6.917,0,13.362-2.015,18.793-5.478C77.984,58.364,80,51.921,80,45
		C80,25.669,64.328,10,44.999,10z"/>
	<g>
		<circle style="fill:#B7B284;" cx="22.425" cy="40.683" r="6.562"/>
		<path style="fill:#C1BE99;" d="M22.426,34.123c-1.297,0-2.506,0.377-3.525,1.026c-0.647,1.019-1.028,2.226-1.028,3.522
			c0,3.625,2.938,6.561,6.563,6.561c1.296,0,2.503-0.376,3.523-1.027c0.65-1.017,1.027-2.225,1.027-3.522
			C28.986,37.06,26.049,34.123,22.426,34.123z"/>
	</g>
	<g>
		<circle style="fill:#B7B284;" cx="46.594" cy="43.507" r="9.195"/>
		<path style="fill:#C1BE99;" d="M46.594,34.311c-1.817,0-3.511,0.531-4.938,1.44c-0.908,1.426-1.44,3.118-1.44,4.936
			c0,5.078,4.118,9.196,9.197,9.196c1.817,0,3.509-0.53,4.936-1.438c0.911-1.428,1.44-3.12,1.44-4.937
			C55.789,38.427,51.672,34.311,46.594,34.311z"/>
	</g>
	<g>
		<circle style="fill:#B7B284;" cx="30.423" cy="63.157" r="3.842"/>
		<path style="fill:#C1BE99;" d="M30.423,59.314c-0.76,0-1.467,0.222-2.064,0.602c-0.38,0.596-0.601,1.303-0.601,2.063
			c0,2.125,1.719,3.842,3.842,3.842c0.758,0,1.465-0.222,2.062-0.601c0.381-0.598,0.602-1.304,0.602-2.065
			C34.265,61.036,32.545,59.314,30.423,59.314z"/>
	</g>
	<g>
		<circle style="fill:#B7B284;" cx="61.422" cy="24.807" r="4.712"/>
		<path style="fill:#C1BE99;" d="M61.423,20.095c-0.934,0-1.799,0.271-2.529,0.737c-0.468,0.73-0.739,1.599-0.739,2.532
			c0,2.6,2.111,4.71,4.71,4.71c0.934,0,1.799-0.27,2.533-0.737c0.465-0.73,0.737-1.598,0.737-2.529
			C66.134,22.205,64.027,20.095,61.423,20.095z"/>
	</g>
	<g>
		<circle style="fill:#B7B284;" cx="35.258" cy="19.39" r="2.683"/>
		<path style="fill:#C1BE99;" d="M35.258,16.708c-0.53,0-1.024,0.155-1.438,0.419c-0.266,0.418-0.422,0.91-0.422,1.442
			c0,1.481,1.201,2.683,2.683,2.683c0.532,0,1.026-0.154,1.443-0.421c0.265-0.415,0.419-0.909,0.419-1.441
			C37.941,17.908,36.739,16.708,35.258,16.708z"/>
	</g>
	<g>
		<path style="fill:#B7B284;" d="M75.386,48.596c0,2.703-2.19,4.899-4.893,4.899c-2.707,0-4.896-2.196-4.896-4.899
			c0-2.701,2.19-4.894,4.896-4.894C73.195,43.702,75.386,45.895,75.386,48.596z"/>
		<path style="fill:#C1BE99;" d="M70.493,43.702c-0.97,0-1.872,0.279-2.628,0.769c-0.488,0.756-0.765,1.656-0.765,2.625
			c0,2.702,2.19,4.894,4.892,4.894c0.967,0,1.868-0.28,2.628-0.763c0.489-0.761,0.766-1.663,0.766-2.632
			C75.386,45.895,73.195,43.702,70.493,43.702z"/>
	</g>
	<g>
		<circle style="fill:#B7B284;" cx="55.5" cy="68.677" r="4.219"/>
		<path style="fill:#C1BE99;" d="M55.499,64.459c-0.833,0-1.609,0.245-2.263,0.661c-0.419,0.654-0.662,1.431-0.662,2.265
			c0,2.329,1.888,4.218,4.218,4.218c0.834,0,1.611-0.242,2.265-0.66c0.419-0.655,0.661-1.433,0.661-2.267
			C59.719,66.349,57.831,64.459,55.499,64.459z"/>
	</g>
</g>
</svg>
