<?xml version="1.0" encoding="utf-8"?>
<!-- Generator: Adobe Illustrator 16.0.4, SVG Export Plug-In . SVG Version: 6.00 Build 0)  -->
<!DOCTYPE svg PUBLIC "-//W3C//DTD SVG 1.0//EN" "http://www.w3.org/TR/2001/REC-SVG-20010904/DTD/svg10.dtd">
<svg version="1.0" id="Layer_1" xmlns="http://www.w3.org/2000/svg" xmlns:xlink="http://www.w3.org/1999/xlink" x="0px" y="0px"
	 width="90px" height="90px" viewBox="0 0 90 90" style="enable-background:new 0 0 90 90;" xml:space="preserve">
<g>
	<circle style="fill:#FFDA24;" cx="45" cy="45" r="32.555"/>
	<path style="fill:#FFDA24;" d="M18.196,15.235l-2.96,2.959c-1.533,1.533-1.533,4.037,0,5.57l2.882,2.88
		c2.288-3.344,5.185-6.239,8.531-8.529l-2.884-2.88C22.232,13.702,19.727,13.702,18.196,15.235z M71.805,15.235
		c-1.533-1.531-4.04-1.531-5.571,0l-2.883,2.882c3.345,2.288,6.242,5.183,8.529,8.531l2.882-2.883c1.531-1.533,1.531-4.038,0-5.571
		L71.805,15.235z M47.091,5h-4.183c-2.167,0-3.94,1.772-3.94,3.938v4.087c1.957-0.365,3.967-0.58,6.032-0.58
		c2.062,0,4.072,0.215,6.029,0.58V8.938C51.029,6.772,49.257,5,47.091,5z M8.938,38.968C6.772,38.968,5,40.743,5,42.909v4.182
		c0,2.17,1.772,3.941,3.938,3.941h4.087c-0.368-1.958-0.581-3.971-0.581-6.032s0.213-4.076,0.581-6.032H8.938z M71.88,63.351
		c-2.286,3.346-5.183,6.241-8.529,8.529l2.883,2.881c1.531,1.532,4.038,1.532,5.571,0l2.958-2.957c1.531-1.533,1.531-4.04,0-5.572
		L71.88,63.351z M81.058,38.968h-4.083c0.365,1.957,0.58,3.971,0.58,6.032s-0.214,4.074-0.58,6.032h4.083
		c2.168,0,3.942-1.771,3.942-3.941v-4.182C85,40.743,83.226,38.968,81.058,38.968z M18.116,63.351l-2.88,2.883
		c-1.533,1.533-1.533,4.037,0,5.57l2.957,2.96c1.534,1.53,4.04,1.53,5.572,0l2.882-2.88C23.303,69.594,20.406,66.697,18.116,63.351z
		 M38.968,76.974v4.088c0,2.166,1.773,3.938,3.94,3.938h4.183c2.167,0,3.938-1.772,3.938-3.938v-4.088
		c-1.957,0.368-3.967,0.58-6.029,0.58C42.935,77.554,40.924,77.342,38.968,76.974z"/>
	<path style="fill:#FFA300;" d="M38.968,11.326v1.699c1.957-0.365,3.967-0.58,6.032-0.58c2.062,0,4.072,0.215,6.029,0.58v-1.699
		c-1.96-0.348-3.969-0.563-6.029-0.563C42.938,10.763,40.93,10.978,38.968,11.326z M71.88,26.649l1.201-1.201
		c-2.319-3.325-5.207-6.212-8.529-8.529l-1.202,1.199C66.696,20.405,69.593,23.3,71.88,26.649z M11.326,38.968
		c-0.352,1.964-0.563,3.971-0.563,6.032s0.212,4.07,0.563,6.032h1.699c-0.368-1.958-0.581-3.971-0.581-6.032
		s0.213-4.076,0.581-6.032H11.326z M63.351,71.88l1.203,1.199c3.323-2.317,6.21-5.205,8.529-8.527l-1.203-1.201
		C69.594,66.697,66.698,69.592,63.351,71.88z M78.674,38.968h-1.699c0.365,1.957,0.58,3.971,0.58,6.032s-0.214,4.074-0.58,6.032
		h1.699c0.348-1.962,0.562-3.971,0.562-6.032S79.022,40.932,78.674,38.968z M38.968,76.974v1.7c1.962,0.348,3.971,0.562,6.032,0.562
		c2.06,0,4.069-0.213,6.029-0.562v-1.7c-1.957,0.368-3.967,0.58-6.029,0.58C42.935,77.554,40.924,77.342,38.968,76.974z
		 M18.116,63.351l-1.199,1.201c2.318,3.325,5.206,6.214,8.529,8.531l1.201-1.199C23.303,69.594,20.406,66.697,18.116,63.351z
		 M16.917,25.446l1.201,1.199c2.288-3.344,5.185-6.239,8.531-8.529l-1.203-1.199C22.123,19.235,19.235,22.123,16.917,25.446z"/>
	<path style="opacity:0.15;fill:#FFFFFF;" d="M66.234,15.235l-2.883,2.882c-3.641-2.491-7.82-4.248-12.322-5.093V8.938
		C51.029,6.772,49.257,5,47.091,5h-4.183c-2.167,0-3.94,1.772-3.94,3.938v4.087c-4.5,0.845-8.678,2.602-12.319,5.091l-2.884-2.88
		c-1.533-1.533-4.038-1.533-5.569,0l-2.96,2.959c-1.533,1.533-1.533,4.037,0,5.57l2.882,2.88c-2.491,3.645-4.248,7.821-5.093,12.323
		H8.938C6.772,38.968,5,40.743,5,42.909v4.182c0,2.17,1.772,3.941,3.938,3.941h4.087c0.845,4.5,2.602,8.678,5.091,12.319
		l-2.88,2.883c-1.533,1.533-1.533,4.037,0,5.57l1.71,1.712l56.569-56.571l-1.71-1.71C70.272,13.704,67.765,13.704,66.234,15.235z"/>
</g>
</svg>
