<?xml version="1.0" encoding="utf-8"?>
<!-- Generator: Adobe Illustrator 16.0.4, SVG Export Plug-In . SVG Version: 6.00 Build 0)  -->
<!DOCTYPE svg PUBLIC "-//W3C//DTD SVG 1.0//EN" "http://www.w3.org/TR/2001/REC-SVG-20010904/DTD/svg10.dtd">
<svg version="1.0" id="Layer_1" xmlns="http://www.w3.org/2000/svg" xmlns:xlink="http://www.w3.org/1999/xlink" x="0px" y="0px"
	 width="90px" height="90px" viewBox="0 0 90 90" style="enable-background:new 0 0 90 90;" xml:space="preserve">
<path style="fill:#FFFFFF;" d="M70.121,38.179c-1.268-10.162-9.985-18.049-20.61-18.168C49.429,20.008,49.348,20,49.265,20
	c-9.339,0-17.243,6.002-19.986,14.301c-5.25,1.151-9.531,4.805-11.495,9.634C10.685,44.172,5,49.902,5,56.955
	c0,7.044,5.666,12.764,12.745,13.022V70h31.766h20.021v-0.037C78.137,69.595,85,62.625,85,54.056
	C85,45.683,78.444,38.832,70.121,38.179z"/>
<g>
	<path style="fill:#F2F4F9;" d="M70.121,38.179c-1.268-10.162-9.985-18.049-20.61-18.168V70h20.021v-0.037
		C78.137,69.595,85,62.625,85,54.056C85,45.683,78.444,38.832,70.121,38.179z"/>
</g>
</svg>
