<?xml version="1.0" encoding="utf-8"?>
<!-- Generator: Adobe Illustrator 16.0.4, SVG Export Plug-In . SVG Version: 6.00 Build 0)  -->
<!DOCTYPE svg PUBLIC "-//W3C//DTD SVG 1.0//EN" "http://www.w3.org/TR/2001/REC-SVG-20010904/DTD/svg10.dtd">
<svg version="1.0" id="Layer_1" xmlns="http://www.w3.org/2000/svg" xmlns:xlink="http://www.w3.org/1999/xlink" x="0px" y="0px"
	 width="90px" height="90px" viewBox="0 0 90 90" style="enable-background:new 0 0 90 90;" xml:space="preserve">
<path style="fill:#FFFFFF;" d="M70.12,31.18c-1.267-10.163-9.985-18.048-20.61-18.168C49.428,13.009,49.347,13,49.264,13
	c-9.339,0-17.242,6.003-19.985,14.302c-5.251,1.15-9.532,4.803-11.495,9.632C10.684,37.172,5,42.903,5,49.955
	c0,7.044,5.665,12.763,12.745,13.021V63H49.51h20.021v-0.038C78.137,62.595,85,55.625,85,47.057
	C85,38.684,78.445,31.832,70.12,31.18z"/>
<g>
	<path style="fill:#F2F4F9;" d="M70.12,31.18c-1.267-10.163-9.985-18.048-20.61-18.168V63h20.021v-0.038
		C78.137,62.595,85,55.625,85,47.057C85,38.684,78.445,31.832,70.12,31.18z"/>
	<g>
		<g style="opacity:0.2;">
			<path style="fill:#122C3D;" d="M42.64,51.407c0.097,0.146,0.163,0.313,0.163,0.503v1.97c0,0.5-0.389,0.907-0.865,0.907H13.975
				c-0.23,0-0.437-0.098-0.591-0.251l-0.01,0.012L21.434,63h1.075h12.737h10.893l7.496-0.073L42.64,51.407z"/>
			<path style="fill:#122C3D;" d="M67.188,63L55.721,51.404c0.091,0.14,0.156,0.297,0.156,0.475v2.034
				c0,0.483-0.39,0.876-0.866,0.876h-3.248c-0.237,0-0.454-0.098-0.61-0.255l8.387,8.465L62.323,63H67.188z"/>
			<path style="fill:#122C3D;" d="M78.743,51.4l-0.024,0.003c0.091,0.139,0.16,0.295,0.16,0.476v2.034
				c0,0.483-0.391,0.876-0.867,0.876H66.75c-0.202,0-0.382-0.082-0.531-0.202l-0.011,0.016l7.36,7.66
				c3.458-1.044,6.416-3.189,8.458-6.031c0.197-0.307,0.395-0.614,0.571-0.935L78.743,51.4z"/>
			<path style="fill:#122C3D;" d="M51.378,54.485l-0.005,0.009l0.034,0.035C51.396,54.517,51.39,54.498,51.378,54.485z"/>
		</g>
		<g>
			<g>
				<path style="fill:#00E1FF;" d="M43,54.042C43,54.57,42.597,55,42.103,55H13.899C13.403,55,13,54.57,13,54.042v-2.08
					C13,51.433,13.403,51,13.899,51h28.203C42.597,51,43,51.433,43,51.961V54.042z"/>
			</g>
			<g>
				<path style="fill:#00E1FF;" d="M17,73.96c0-0.528,0.407-0.96,0.901-0.96h29.216c0.492,0,0.896,0.433,0.896,0.96v2.076
					c0,0.527-0.403,0.964-0.896,0.964H17.901C17.407,77,17,76.563,17,76.036V73.96z"/>
			</g>
			<g>
				<path style="fill:#00E1FF;" d="M65.99,65.042c0,0.529-0.403,0.958-0.899,0.958H45.897C45.403,66,45,65.571,45,65.042V62.96
					c0-0.529,0.403-0.96,0.897-0.96h19.193c0.496,0,0.899,0.431,0.899,0.96V65.042z"/>
			</g>
			<g>
				<path style="fill:#00E1FF;" d="M54.997,73.96c0-0.528,0.401-0.958,0.899-0.958l19.257,0c0.494,0,0.897,0.43,0.897,0.958v2.079
					c0,0.527-0.403,0.958-0.897,0.958l-19.257,0c-0.498,0-0.899-0.432-0.899-0.958V73.96z"/>
			</g>
			<g>
				<path style="fill:#00E1FF;" d="M22,65.074C22,65.584,22.391,66,22.867,66h12.268C35.609,66,36,65.584,36,65.074v-2.147
					c0-0.509-0.391-0.925-0.865-0.925H22.867c-0.477,0-0.867,0.416-0.867,0.925V65.074z"/>
			</g>
			<g>
				<path style="fill:#00E1FF;" d="M65.99,54.075c0,0.51,0.391,0.925,0.867,0.925h11.275C78.609,55,79,54.585,79,54.075v-2.147
					c0-0.509-0.512-0.924-0.867-0.924H66.979c-0.598,0-0.988,0.416-0.988,0.924V54.075z"/>
			</g>
			<g>
				<path style="fill:#00E1FF;" d="M51,54.073c0,0.51,0.391,0.925,0.867,0.925h3.267c0.477,0,0.866-0.415,0.866-0.925v-2.148
					C56,51.416,55.61,51,55.134,51h-3.267C51.391,51,51,51.416,51,51.925V54.073z"/>
			</g>
		</g>
	</g>
</g>
</svg>
