<?xml version="1.0" encoding="utf-8"?>
<!-- Generator: Adobe Illustrator 16.0.4, SVG Export Plug-In . SVG Version: 6.00 Build 0)  -->
<!DOCTYPE svg PUBLIC "-//W3C//DTD SVG 1.0//EN" "http://www.w3.org/TR/2001/REC-SVG-20010904/DTD/svg10.dtd">
<svg version="1.0" id="Layer_1" xmlns="http://www.w3.org/2000/svg" xmlns:xlink="http://www.w3.org/1999/xlink" x="0px" y="0px"
	 width="90px" height="90px" viewBox="0 0 90 90" style="enable-background:new 0 0 90 90;" xml:space="preserve">
<path style="fill:#FFFFFF;" d="M70.12,31.18c-1.267-10.163-9.985-18.048-20.61-18.168C49.428,13.009,49.347,13,49.264,13
	c-9.339,0-17.242,6.003-19.985,14.302c-5.251,1.15-9.532,4.803-11.495,9.632C10.684,37.172,5,42.903,5,49.955
	c0,7.044,5.665,12.763,12.745,13.021V63H49.51h20.021v-0.038C78.137,62.595,85,55.625,85,47.057
	C85,38.684,78.445,31.832,70.12,31.18z"/>
<g>
	<path style="fill:#F2F4F9;" d="M70.12,31.18c-1.267-10.163-9.985-18.048-20.61-18.168V63h20.021v-0.038
		C78.137,62.595,85,55.625,85,47.057C85,38.684,78.445,31.832,70.12,31.18z"/>
</g>
<polygon style="opacity:0.2;fill:#122C3D;" points="29.767,63 49.357,63 39.562,53.205 "/>
<polygon style="opacity:0.2;fill:#122C3D;" points="49.957,63 68.041,63 58.999,53.958 "/>
<path style="opacity:0.2;fill:#122C3D;" d="M74.268,56.272L67.541,63h1.991v-0.038c3.18-0.136,6.118-1.177,8.563-2.863
	L74.268,56.272z"/>
<g>
	<g>
		<path style="fill:#00E1FF;" d="M40.342,53.858c0.374,0.374,0.487,0.869,0.253,1.103L27.233,68.322
			c-0.235,0.236-0.729,0.122-1.104-0.251l-1.47-1.472c-0.374-0.374-0.49-0.87-0.254-1.105l13.361-13.362
			c0.234-0.234,0.731-0.118,1.104,0.255L40.342,53.858z"/>
	</g>
</g>
<g>
	<g>
		<path style="fill:#00E1FF;" d="M60.036,54.686c0.373,0.375,0.375,0.981,0.003,1.353l-21.2,21.199
			c-0.374,0.374-0.979,0.372-1.354-0.001l-1.47-1.472c-0.374-0.374-0.378-0.981-0.004-1.355l21.199-21.2
			c0.372-0.372,0.98-0.367,1.354,0.006L60.036,54.686z"/>
	</g>
</g>
<g>
	<g>
		<path style="fill:#00E1FF;" d="M75.136,57.128c0.374,0.374,0.47,0.885,0.215,1.141L60.813,72.806
			c-0.256,0.256-0.767,0.16-1.141-0.214l-1.471-1.471c-0.374-0.374-0.473-0.887-0.216-1.143L72.522,55.44
			c0.255-0.255,0.769-0.156,1.143,0.217L75.136,57.128z"/>
	</g>
</g>
<g>
	<circle style="fill:#00E1FF;" cx="19.5" cy="73.5" r="5"/>
	<path style="fill:#00C6F4;" d="M23.036,77.036c1.953-1.953,1.953-5.118,0-7.071l-7.071,7.071
		C17.917,78.988,21.083,78.988,23.036,77.036z"/>
</g>
<g>
	<circle style="fill:#00E1FF;" cx="53.292" cy="78" r="5"/>
	<path style="fill:#00C6F4;" d="M56.828,81.536c1.953-1.953,1.953-5.118,0-7.071l-7.071,7.071
		C51.709,83.488,54.875,83.488,56.828,81.536z"/>
</g>
<g>
	<circle style="fill:#00E1FF;" cx="32" cy="81.5" r="3.5"/>
	<path style="fill:#00C6F4;" d="M34.475,83.975c1.367-1.367,1.367-3.583,0-4.95l-4.95,4.95
		C30.892,85.342,33.108,85.342,34.475,83.975z"/>
</g>
</svg>
