<?xml version="1.0" encoding="utf-8"?>
<!-- Generator: Adobe Illustrator 16.0.4, SVG Export Plug-In . SVG Version: 6.00 Build 0)  -->
<!DOCTYPE svg PUBLIC "-//W3C//DTD SVG 1.0//EN" "http://www.w3.org/TR/2001/REC-SVG-20010904/DTD/svg10.dtd">
<svg version="1.0" id="Layer_1" xmlns="http://www.w3.org/2000/svg" xmlns:xlink="http://www.w3.org/1999/xlink" x="0px" y="0px"
	 width="24px" height="24px" viewBox="0 0 24 24" style="enable-background:new 0 0 24 24;" xml:space="preserve">
<g>
	<path style="fill:#FFFFFF;" d="M13,3.327V3.292h-0.005C12.967,3.125,12.759,3,12.504,3c-0.262,0-0.465,0.125-0.492,0.292H12v0.035
		l0,0v0.002V19h1V3.329V3.327L13,3.327z"/>
	<polygon style="opacity:0.2;fill:#122C3D;" points="12,11.778 13,12.558 13,9.725 12,9.725 	"/>
	<path style="fill:#00E1FF;" d="M12.519,4c-0.007,0-0.009,0-0.01,0h-0.007c0,0,0,0-0.001,0C7.553,4.004,3.491,7.252,3,11.413
		c0.256-0.96,1.21-1.688,2.353-1.688c1.172,0,2.145,0.768,2.363,1.775h0.021h0.025c0.219-1.008,1.191-1.775,2.364-1.775
		c1.174,0,2.146,0.768,2.364,1.775h0.011h0.036c0.219-1.008,1.19-1.775,2.365-1.775c1.172,0,2.145,0.768,2.364,1.775h0.019h0.022
		c0.224-1.008,1.192-1.775,2.37-1.775c1.102,0,2.029,0.677,2.323,1.595C21.459,7.206,17.423,4.002,12.519,4z M7.745,11.422
		c0.006-0.056,0.017-0.149,0.032-0.26C7.762,11.272,7.751,11.366,7.745,11.422z"/>
	<g>
		<path style="fill:#00C6F4;" d="M22,11.319C21.459,7.206,17.423,4.002,12.519,4c4.245,1.205,4.765,7.459,4.766,7.5h0.022
			c0.224-1.008,1.192-1.775,2.37-1.775C20.779,9.725,21.706,10.401,22,11.319z"/>
		<path style="fill:#00C6F4;" d="M7.737,11.5h0.025c0.219-1.008,1.191-1.775,2.364-1.775c1.174,0,2.146,0.768,2.364,1.775h0.011V4
			C8.258,5.205,7.742,11.459,7.737,11.5z"/>
	</g>
	<path style="fill:#98D24D;" d="M12,18v1.501c0,0.552-0.449,1.001-1.001,1.001s-1.001-0.449-1.001-1.001c0-0.276-0.224-0.5-0.5-0.5
		s-0.5,0.224-0.5,0.5c0,1.104,0.897,2.001,2.001,2.001S13,20.604,13,19.501V18H12z"/>
</g>
</svg>
