<?xml version="1.0" encoding="utf-8"?>
<!-- Generator: Adobe Illustrator 16.0.4, SVG Export Plug-In . SVG Version: 6.00 Build 0)  -->
<!DOCTYPE svg PUBLIC "-//W3C//DTD SVG 1.0//EN" "http://www.w3.org/TR/2001/REC-SVG-20010904/DTD/svg10.dtd">
<svg version="1.0" id="Layer_1" xmlns="http://www.w3.org/2000/svg" xmlns:xlink="http://www.w3.org/1999/xlink" x="0px" y="0px"
	 width="24px" height="24px" viewBox="0 0 24 24" style="enable-background:new 0 0 24 24;" xml:space="preserve">
<g>
	<g>
		<path style="fill:#00E1FF;" d="M12,8.76C12,8.893,11.881,9,11.737,9H2.263C2.118,9,2,8.893,2,8.76V8.24C2,8.108,2.118,8,2.263,8
			h9.475C11.881,8,12,8.108,12,8.24V8.76z"/>
	</g>
	<g>
		<path style="fill:#00E1FF;" d="M13,16.76c0,0.132-0.132,0.24-0.292,0.24H3.292C3.131,17,3,16.892,3,16.76v-0.519
			C3,16.108,3.131,16,3.292,16h9.416C12.868,16,13,16.108,13,16.241V16.76z"/>
	</g>
	<g>
		<path style="fill:#00E1FF;" d="M15,12.761C15,12.893,14.864,13,14.697,13H8.302C8.136,13,8,12.893,8,12.761V12.24
			C8,12.108,8.136,12,8.302,12h6.396C14.864,12,15,12.108,15,12.24V12.761z"/>
	</g>
	<path style="fill:#98D24D;" d="M21.259,9.585c0,0,0.949-0.214,1.241-0.413c-0.01,0.001-0.433-0.528-1.547-0.801
		c0.371-0.161,0.371-0.161,0.371-0.161s-0.083-0.19-0.623-0.345c-0.027-0.106,0.368-0.6,0.38-0.858
		c-0.144,0.04-0.144,0.04-0.144,0.04s0.051-0.397,0.054-0.573c-0.109-0.018-0.109-0.018-0.109-0.018s0.211-0.467,0.126-1.097
		c-0.054-0.351-0.054-0.351-0.054-0.351L20.87,5.114l0.082-0.104c0,0,0,0-0.354,0.031c-0.632,0.066-1.034,0.384-1.034,0.384
		s0,0-0.044-0.103c-0.17,0.045-0.543,0.189-0.543,0.189s0,0,0.004-0.149c-0.248,0.073-0.632,0.573-0.743,0.573
		c-0.278-0.487-0.483-0.522-0.483-0.522s0,0-0.068,0.398C17.156,4.795,16.542,4.51,16.54,4.5c-0.123,0.331-0.105,1.304-0.105,1.304
		s0,0-0.203-0.124c-0.119,0.325,0.009,0.907,0.009,0.907s-0.233-0.088-0.491-0.136c-0.044,0.309,0.056,0.46,0.146,0.688
		c-0.056-0.01-0.057-0.021-0.454-0.034c-0.527-0.022-0.833,0.317-0.833,0.317s0,0,0.097,0.258c0.282,0.818,0.86,0.89,0.86,0.89
		s0,0-0.37,0.019c0.238,0.519,0.828,0.487,0.828,0.487s0,0-0.289,0.092c0.363,0.459,0.903,0.447,0.903,0.447s0,0-0.163,0.113
		c0.124,0.118,0.447,0.106,0.646,0.103c-0.047,0.045-0.326,0.208-1.085,0.554c-0.759,0.345-1.08,0.284-1.191,0.304
		c-0.111,0.021-0.075,0.131-0.075,0.131s0,0.123,0.155,0.115c0.153-0.008,0.724-0.071,1.5-0.516
		c0.291-0.166,0.584-0.285,0.785-0.427c0.046,0.188,0.113,0.415,0.228,0.486c0.07-0.185,0.07-0.185,0.07-0.185
		s0.117,0.527,0.649,0.771c0.021-0.302,0.021-0.302,0.021-0.302s0.11,0.58,0.669,0.688c-0.069-0.363-0.069-0.363-0.069-0.363
		s0.206,0.544,1.069,0.624c0.273,0.032,0.273,0.032,0.273,0.032s0.257-0.378,0.109-0.885c-0.106-0.382-0.118-0.38-0.141-0.433
		c0.244,0.032,0.415,0.094,0.703-0.022c-0.107-0.238-0.248-0.444-0.248-0.444s0.595-0.015,0.882-0.208
		C21.259,9.585,21.259,9.585,21.259,9.585z"/>
	<g>
		<path style="fill:#83BA36;" d="M20.23,10.859c-0.106-0.382-0.118-0.38-0.141-0.433c0.244,0.032,0.415,0.094,0.703-0.022
			c-0.107-0.238-0.248-0.444-0.248-0.444s0.595-0.015,0.882-0.208c-0.168-0.167-0.168-0.167-0.168-0.167s0.949-0.214,1.241-0.413
			c-0.01,0.001-0.433-0.528-1.547-0.801c0.371-0.161,0.371-0.161,0.371-0.161s-0.083-0.19-0.623-0.345
			c-0.027-0.106,0.368-0.6,0.38-0.858c-0.144,0.04-0.144,0.04-0.144,0.04s0.051-0.397,0.054-0.573
			c-0.109-0.018-0.109-0.018-0.109-0.018s0.211-0.467,0.126-1.097c-0.054-0.351-0.054-0.351-0.054-0.351L20.87,5.114l0.082-0.104
			l-3.83,4.821c-0.047,0.045-0.326,0.208-1.085,0.554c-0.759,0.345-1.08,0.284-1.191,0.304c-0.111,0.021-0.075,0.131-0.075,0.131
			s0,0.123,0.155,0.115c0.153-0.008,0.724-0.071,1.5-0.516c0.291-0.166,0.584-0.285,0.785-0.427
			c0.046,0.188,0.113,0.415,0.228,0.486c0.07-0.185,0.07-0.185,0.07-0.185s0.117,0.527,0.649,0.771
			c0.021-0.302,0.021-0.302,0.021-0.302s0.11,0.58,0.669,0.688c-0.069-0.363-0.069-0.363-0.069-0.363s0.206,0.544,1.069,0.624
			c0.273,0.032,0.273,0.032,0.273,0.032S20.379,11.366,20.23,10.859z"/>
	</g>
	<path style="fill:#98D24D;" d="M21.283,17.946c-0.189-1.354-0.745-2.094-0.938-2.324c-2.099-2.121-4.109-0.385-4.355-0.215
		c-1.415-0.601-2.349-0.447-2.349-0.447s-0.062,0.002-0.05,0.06c0.014,0.065,0.062,0.062,0.116,0.06
		c1.083-0.11,2.147,0.417,2.232,0.448c-0.271,0.563-0.28,0.915-0.287,1.103c-0.04,1.815,1.956,2.15,2.168,2.194
		c0.67,0.104,3.511,0.459,3.771,0.528C21.435,19.045,21.379,18.66,21.283,17.946z"/>
	<g>
		<path style="fill:#83BA36;" d="M15.651,16.63c-0.04,1.815,1.956,2.15,2.168,2.194c0.67,0.104,3.511,0.459,3.771,0.528
			c0,0-2.267-2.469-5.653-3.825C15.668,16.091,15.659,16.442,15.651,16.63z"/>
	</g>
</g>
</svg>
