<?xml version="1.0" encoding="utf-8"?>
<!-- Generator: Adobe Illustrator 16.0.4, SVG Export Plug-In . SVG Version: 6.00 Build 0)  -->
<!DOCTYPE svg PUBLIC "-//W3C//DTD SVG 1.0//EN" "http://www.w3.org/TR/2001/REC-SVG-20010904/DTD/svg10.dtd">
<svg version="1.0" id="Layer_1" xmlns="http://www.w3.org/2000/svg" xmlns:xlink="http://www.w3.org/1999/xlink" x="0px" y="0px"
	 width="90px" height="90px" viewBox="0 0 90 90" style="enable-background:new 0 0 90 90;" xml:space="preserve">
<g>
	<g>
		<circle style="fill:#FFDA24;" cx="51" cy="44" r="28.485"/>
		<path style="fill:#FFDA24;" d="M27.548,17.958l-2.59,2.59c-1.339,1.339-1.339,3.53,0,4.873l2.525,2.521
			c2-2.927,4.536-5.46,7.46-7.461l-2.521-2.521C31.081,16.615,28.89,16.615,27.548,17.958z M74.457,17.958
			c-1.345-1.338-3.536-1.338-4.877,0l-2.522,2.523c2.928,2,5.464,4.534,7.465,7.462l2.521-2.521c1.341-1.342,1.341-3.533,0-4.873
			L74.457,17.958z M52.832,9h-3.657c-1.9,0-3.451,1.551-3.451,3.446v3.578c1.713-0.323,3.472-0.51,5.277-0.51
			c1.807,0,3.565,0.188,5.278,0.51v-3.578C56.279,10.551,54.728,9,52.832,9z M19.448,38.723c-1.896,0-3.448,1.55-3.448,3.449v3.659
			c0,1.896,1.553,3.445,3.448,3.445h3.575c-0.321-1.712-0.507-3.473-0.507-5.276s0.187-3.564,0.507-5.277H19.448z M74.522,60.057
			c-2,2.929-4.537,5.461-7.465,7.464l2.522,2.521c1.342,1.339,3.536,1.339,4.877,0l2.586-2.588c1.341-1.341,1.341-3.534,0-4.875
			L74.522,60.057z M82.554,38.723h-3.575c0.32,1.712,0.506,3.473,0.506,5.277s-0.187,3.564-0.506,5.276h3.575
			c1.896,0,3.446-1.549,3.446-3.445v-3.659C86,40.273,84.449,38.723,82.554,38.723z M27.479,60.057l-2.521,2.522
			c-1.339,1.341-1.339,3.534,0,4.874l2.59,2.59c1.341,1.339,3.532,1.339,4.874,0l2.521-2.522
			C32.02,65.521,29.483,62.986,27.479,60.057z M45.724,71.978v3.576c0,1.896,1.551,3.446,3.451,3.446h3.657
			c1.896,0,3.447-1.551,3.447-3.446v-3.576c-1.712,0.321-3.471,0.508-5.278,0.508C49.196,72.486,47.438,72.298,45.724,71.978z"/>
		<path style="fill:#FFA300;" d="M45.724,14.537v1.488c1.713-0.323,3.472-0.51,5.277-0.51c1.807,0,3.565,0.188,5.278,0.51v-1.488
			c-1.716-0.306-3.471-0.494-5.278-0.494C49.2,14.043,47.44,14.231,45.724,14.537z M74.522,27.942l1.05-1.05
			c-2.03-2.908-4.555-5.435-7.46-7.463l-1.055,1.052C69.985,22.48,72.522,25.015,74.522,27.942z M21.536,38.723
			c-0.306,1.716-0.491,3.475-0.491,5.277c0,1.802,0.185,3.561,0.491,5.276h1.487c-0.321-1.712-0.507-3.473-0.507-5.276
			s0.187-3.564,0.507-5.277H21.536z M67.058,67.521l1.055,1.048c2.906-2.026,5.431-4.553,7.46-7.462l-1.05-1.05
			C72.522,62.986,69.985,65.518,67.058,67.521z M80.464,38.723h-1.485c0.32,1.712,0.506,3.473,0.506,5.277s-0.187,3.564-0.506,5.276
			h1.485c0.306-1.715,0.493-3.475,0.493-5.276C80.957,42.198,80.77,40.439,80.464,38.723z M45.724,71.978v1.486
			c1.716,0.305,3.476,0.493,5.277,0.493c1.807,0,3.562-0.188,5.278-0.493v-1.486c-1.712,0.321-3.471,0.508-5.278,0.508
			C49.196,72.486,47.438,72.298,45.724,71.978z M27.479,60.057l-1.05,1.05c2.029,2.909,4.559,5.439,7.464,7.464l1.05-1.05
			C32.02,65.521,29.483,62.986,27.479,60.057z M26.429,26.891l1.054,1.05c2-2.927,4.536-5.46,7.46-7.461l-1.05-1.052
			C30.988,21.458,28.458,23.984,26.429,26.891z"/>
		<path style="opacity:0.15;fill:#FFFFFF;" d="M69.58,17.958l-2.522,2.523c-3.187-2.183-6.84-3.718-10.779-4.456v-3.578
			c0-1.896-1.551-3.446-3.447-3.446h-3.657c-1.9,0-3.451,1.551-3.451,3.446v3.578c-3.939,0.738-7.593,2.273-10.781,4.455
			l-2.521-2.521c-1.342-1.342-3.533-1.342-4.874,0l-2.59,2.59c-1.339,1.339-1.339,3.53,0,4.873l2.525,2.521
			c-2.184,3.189-3.721,6.844-4.46,10.783h-3.575c-1.896,0-3.448,1.55-3.448,3.449v3.659c0,1.896,1.553,3.445,3.448,3.445h3.575
			c0.74,3.939,2.277,7.594,4.457,10.781l-2.521,2.522c-1.339,1.341-1.339,3.534,0,4.874l1.496,1.498l49.499-49.498l-1.497-1.496
			C73.112,16.619,70.921,16.619,69.58,17.958z"/>
	</g>
	<path style="fill:#FFFFFF;" d="M69.12,48.178c-1.265-10.161-9.98-18.047-20.608-18.167C48.431,30.01,48.348,30,48.266,30
		c-9.335,0-17.241,6.003-19.987,14.302c-5.251,1.151-9.53,4.804-11.494,9.632C9.686,54.172,4,59.902,4,66.954
		c0,7.045,5.668,12.764,12.747,13.023V80h31.765h20.022v-0.038C77.136,79.594,84,72.625,84,64.058
		C84,55.684,77.444,48.832,69.12,48.178z"/>
	<g>
		<path style="fill:#F2F4F9;" d="M69.12,48.178c-1.265-10.161-9.98-18.047-20.608-18.167V80h20.022v-0.038
			C77.136,79.594,84,72.625,84,64.058C84,55.684,77.444,48.832,69.12,48.178z"/>
	</g>
</g>
</svg>
