<?xml version="1.0" encoding="utf-8"?>
<!-- Generator: Adobe Illustrator 16.0.4, SVG Export Plug-In . SVG Version: 6.00 Build 0)  -->
<!DOCTYPE svg PUBLIC "-//W3C//DTD SVG 1.0//EN" "http://www.w3.org/TR/2001/REC-SVG-20010904/DTD/svg10.dtd">
<svg version="1.0" id="Layer_1" xmlns="http://www.w3.org/2000/svg" xmlns:xlink="http://www.w3.org/1999/xlink" x="0px" y="0px"
	 width="90px" height="90px" viewBox="0 0 90 90" style="enable-background:new 0 0 90 90;" xml:space="preserve">
<g>
	<circle style="fill:#C6C5A3;" cx="51.252" cy="44.042" r="34.043"/>
	<path style="fill:#D1D1B0;" d="M51.253,10c-6.73,0-12.999,1.961-18.281,5.33c-3.369,5.282-5.329,11.55-5.329,18.281
		c0,18.801,15.24,34.042,34.044,34.042c6.729,0,12.996-1.959,18.281-5.328c3.367-5.283,5.327-11.55,5.327-18.282
		C85.295,25.24,70.054,10,51.253,10z"/>
	<g>
		<circle style="fill:#B7B284;" cx="29.294" cy="39.845" r="6.382"/>
		<path style="fill:#C1BE99;" d="M29.296,33.463c-1.263,0-2.438,0.367-3.43,0.998c-0.628,0.991-0.998,2.166-0.998,3.427
			c0,3.526,2.854,6.381,6.383,6.381c1.262,0,2.436-0.366,3.426-0.999c0.633-0.99,1-2.166,1-3.426
			C35.677,36.32,32.82,33.463,29.296,33.463z"/>
	</g>
	<g>
		<path style="fill:#B7B284;" d="M61.748,42.591c0,4.938-4.006,8.941-8.944,8.941c-4.94,0-8.944-4.003-8.944-8.941
			c0-4.941,4.004-8.945,8.944-8.945C57.742,33.646,61.748,37.65,61.748,42.591z"/>
		<path style="fill:#C1BE99;" d="M52.804,33.646c-1.769,0-3.415,0.516-4.802,1.401c-0.885,1.387-1.401,3.033-1.401,4.801
			c0,4.939,4.005,8.944,8.943,8.944c1.769,0,3.413-0.514,4.803-1.399c0.886-1.388,1.401-3.035,1.401-4.801
			C61.748,37.65,57.742,33.646,52.804,33.646z"/>
	</g>
	<g>
		<circle style="fill:#B7B284;" cx="37.074" cy="61.703" r="3.737"/>
		<path style="fill:#C1BE99;" d="M37.074,57.966c-0.74,0-1.428,0.215-2.009,0.585c-0.369,0.58-0.582,1.268-0.582,2.008
			c0,2.066,1.67,3.737,3.736,3.737c0.736,0,1.425-0.215,2.008-0.584c0.368-0.582,0.584-1.269,0.584-2.009
			C40.812,59.64,39.138,57.966,37.074,57.966z"/>
	</g>
	<g>
		<circle style="fill:#B7B284;" cx="67.226" cy="24.402" r="4.583"/>
		<path style="fill:#C1BE99;" d="M67.227,19.818c-0.908,0-1.751,0.263-2.461,0.718c-0.455,0.71-0.718,1.554-0.718,2.462
			c0,2.528,2.054,4.581,4.582,4.581c0.907,0,1.748-0.262,2.461-0.717c0.455-0.71,0.718-1.554,0.718-2.46
			C71.809,21.872,69.759,19.818,67.227,19.818z"/>
	</g>
	<g>
		<circle style="fill:#B7B284;" cx="41.777" cy="19.134" r="2.61"/>
		<path style="fill:#C1BE99;" d="M41.777,16.524c-0.517,0-0.996,0.15-1.399,0.408c-0.261,0.407-0.409,0.886-0.409,1.403
			c0,1.44,1.167,2.61,2.607,2.61c0.518,0,0.998-0.151,1.403-0.409c0.258-0.405,0.407-0.885,0.407-1.402
			C44.387,17.692,43.218,16.524,41.777,16.524z"/>
	</g>
	<g>
		<path style="fill:#B7B284;" d="M80.809,47.541c0,2.628-2.131,4.765-4.761,4.765c-2.631,0-4.761-2.137-4.761-4.765
			c0-2.626,2.13-4.759,4.761-4.759C78.678,42.781,80.809,44.914,80.809,47.541z"/>
		<path style="fill:#C1BE99;" d="M76.048,42.781c-0.942,0-1.819,0.271-2.558,0.748c-0.471,0.735-0.742,1.61-0.742,2.554
			c0,2.629,2.131,4.76,4.759,4.76c0.939,0,1.818-0.273,2.556-0.743c0.476-0.74,0.746-1.617,0.746-2.56
			C80.809,44.914,78.678,42.781,76.048,42.781z"/>
	</g>
	<g>
		<circle style="fill:#B7B284;" cx="61.466" cy="67.073" r="4.104"/>
		<path style="fill:#C1BE99;" d="M61.467,62.969c-0.812,0-1.567,0.238-2.204,0.643c-0.407,0.636-0.642,1.393-0.642,2.204
			c0,2.266,1.837,4.103,4.104,4.103c0.811,0,1.566-0.236,2.201-0.641c0.407-0.638,0.645-1.394,0.645-2.205
			C65.57,64.808,63.732,62.969,61.467,62.969z"/>
	</g>
</g>
<g>
	<path style="fill:#FFFFFF;" d="M69.12,48.178c-1.265-10.161-9.98-18.047-20.608-18.167C48.431,30.01,48.348,30,48.266,30
		c-9.335,0-17.24,6.003-19.986,14.302c-5.252,1.151-9.531,4.804-11.494,9.632C9.686,54.172,4,59.902,4,66.954
		c0,7.045,5.668,12.764,12.747,13.023V80h31.765h20.022v-0.038C77.137,79.594,84,72.625,84,64.058
		C84,55.684,77.443,48.832,69.12,48.178z"/>
	<path style="fill:#F2F4F9;" d="M69.12,48.178c-1.265-10.161-9.98-18.047-20.608-18.167V80h20.022v-0.038
		C77.137,79.594,84,72.625,84,64.058C84,55.684,77.443,48.832,69.12,48.178z"/>
</g>
</svg>
