<?xml version="1.0" encoding="utf-8"?>
<!-- Generator: Adobe Illustrator 16.0.4, SVG Export Plug-In . SVG Version: 6.00 Build 0)  -->
<!DOCTYPE svg PUBLIC "-//W3C//DTD SVG 1.0//EN" "http://www.w3.org/TR/2001/REC-SVG-20010904/DTD/svg10.dtd">
<svg version="1.0" id="Layer_1" xmlns="http://www.w3.org/2000/svg" xmlns:xlink="http://www.w3.org/1999/xlink" x="0px" y="0px"
	 width="90px" height="90px" viewBox="0 0 90 90" style="enable-background:new 0 0 90 90;" xml:space="preserve">
<path style="fill:#FFFFFF;" d="M70.12,30.179c-1.266-10.163-9.984-18.048-20.609-18.167C49.428,12.009,49.348,12,49.265,12
	c-9.339,0-17.243,6.003-19.986,14.302c-5.251,1.15-9.531,4.804-11.495,9.633C10.684,36.172,5,41.902,5,48.954
	c0,7.044,5.665,12.764,12.745,13.022V62h31.766h20.021v-0.038C78.137,61.595,85,54.625,85,46.057
	C85,37.684,78.444,30.832,70.12,30.179z"/>
<g>
	<g>
		<path style="fill:#F2F4F9;" d="M70.12,30.179c-1.266-10.163-9.984-18.048-20.609-18.167V62h20.021v-0.038
			C78.137,61.595,85,54.625,85,46.057C85,37.684,78.444,30.832,70.12,30.179z"/>
	</g>
	<path style="fill:#00E1FF;" d="M32.381,52.729c-0.18-0.177-0.474-0.239-0.845-0.14l-12.784,3.434l-1.083,0.291
		c-1.27,0.416-2.463,1.122-3.471,2.129c-3.444,3.443-3.446,9.027,0,12.471c3.441,3.44,9.024,3.44,12.468,0
		c1.007-1.007,1.71-2.198,2.13-3.466l0.292-1.093l3.434-12.782C32.621,53.205,32.56,52.908,32.381,52.729z"/>
	<g>
		<path style="fill:#00C6F4;" d="M28.796,67.447l0.292-1.093l3.434-12.782c0.1-0.367,0.038-0.664-0.141-0.843L14.198,70.914
			c3.441,3.44,9.024,3.44,12.468,0C27.673,69.907,28.376,68.716,28.796,67.447z"/>
	</g>
	<path style="fill:#00E1FF;" d="M73.726,55.376c-0.178-0.178-0.473-0.239-0.843-0.14l-12.784,3.433l-1.086,0.292
		c-1.27,0.417-2.462,1.123-3.47,2.129c-3.444,3.443-3.444,9.026,0,12.47c3.443,3.444,9.026,3.444,12.47,0
		c1.006-1.006,1.71-2.197,2.129-3.464L70.433,69l3.434-12.778C73.966,55.85,73.904,55.554,73.726,55.376z"/>
	<g>
		<path style="fill:#00C6F4;" d="M70.142,70.095L70.433,69l3.434-12.778c0.1-0.371,0.038-0.667-0.141-0.845L55.543,73.559
			c3.443,3.444,9.026,3.444,12.47,0C69.019,72.553,69.723,71.362,70.142,70.095z"/>
	</g>
	<path style="fill:#00E1FF;" d="M46.157,65.345c-0.108-0.109-0.288-0.144-0.512-0.085l-7.759,2.083l-0.661,0.176
		c-0.769,0.253-1.494,0.681-2.106,1.294c-2.089,2.09-2.089,5.477,0,7.569c2.089,2.088,5.478,2.088,7.567,0
		c0.614-0.613,1.039-1.335,1.294-2.105l0.177-0.663l2.083-7.758C46.3,65.633,46.265,65.451,46.157,65.345z"/>
	<g>
		<path style="fill:#00C6F4;" d="M43.98,74.276l0.177-0.663l2.083-7.758c0.06-0.222,0.024-0.404-0.083-0.51L35.119,76.381
			c2.089,2.088,5.478,2.088,7.567,0C43.301,75.768,43.726,75.046,43.98,74.276z"/>
	</g>
	<path style="opacity:0.2;fill:#122C3D;" d="M30.258,62H41.65l-9.27-9.271c0.179,0.179,0.24,0.476,0.141,0.843L30.258,62z"/>
	<path style="opacity:0.2;fill:#122C3D;" d="M72.427,61.57c1.91-0.428,3.686-1.192,5.271-2.22l-3.973-3.975
		c0.179,0.178,0.24,0.474,0.141,0.845L72.427,61.57z"/>
</g>
</svg>
