<?xml version="1.0" encoding="utf-8"?>
<!-- Generator: Adobe Illustrator 16.0.4, SVG Export Plug-In . SVG Version: 6.00 Build 0)  -->
<!DOCTYPE svg PUBLIC "-//W3C//DTD SVG 1.0//EN" "http://www.w3.org/TR/2001/REC-SVG-20010904/DTD/svg10.dtd">
<svg version="1.0" id="Layer_1" xmlns="http://www.w3.org/2000/svg" xmlns:xlink="http://www.w3.org/1999/xlink" x="0px" y="0px"
	 width="90px" height="90px" viewBox="0 0 90 90" style="enable-background:new 0 0 90 90;" xml:space="preserve">
<path style="fill:#FFFFFF;" d="M70.12,27.18C68.854,17.018,60.136,9.133,49.511,9.012C49.428,9.009,49.348,9,49.264,9
	c-9.338,0-17.242,6.005-19.986,14.303c-5.251,1.15-9.532,4.803-11.495,9.633C10.684,33.173,5,38.903,5,45.954
	c0,7.045,5.665,12.764,12.746,13.022V59h31.765h20.021v-0.036C78.137,58.596,85,51.626,85,43.058
	C85,34.684,78.445,27.832,70.12,27.18z"/>
<g>
	<path style="fill:#F2F4F9;" d="M70.12,27.18C68.854,17.018,60.136,9.133,49.511,9.012V59h20.021v-0.036
		C78.137,58.596,85,51.626,85,43.058C85,34.684,78.445,27.832,70.12,27.18z"/>
	<path style="fill:#00E1FF;" d="M48.932,77.221L47.4,76.359l1.333-0.349c0.071-0.019,0.115-0.092,0.097-0.161l-0.216-0.781
		c-0.018-0.071-0.094-0.112-0.166-0.094l-2.394,0.626L44.1,74.5l1.954-1.101l2.394,0.626c0.072,0.019,0.147-0.022,0.166-0.094
		l0.216-0.781c0.019-0.071-0.025-0.141-0.097-0.161L47.4,72.641l1.531-0.861c0.065-0.036,0.087-0.116,0.05-0.179l-0.417-0.702
		c-0.036-0.062-0.118-0.083-0.182-0.047l-1.533,0.86l0.358-1.297c0.018-0.07-0.023-0.144-0.095-0.163l-0.803-0.208
		c-0.071-0.02-0.146,0.023-0.165,0.092l-0.643,2.337L43.55,73.57v-2.1l1.753-1.709c0.052-0.051,0.052-0.133,0-0.185l-0.587-0.573
		c-0.052-0.05-0.139-0.05-0.191,0l-0.975,0.951v-1.824c0-0.072-0.061-0.131-0.136-0.131h-0.83c-0.074,0-0.136,0.059-0.136,0.131
		v1.824l-0.976-0.951c-0.051-0.05-0.137-0.05-0.189,0l-0.589,0.573c-0.052,0.052-0.052,0.134,0,0.185l1.753,1.709v2.1l-1.864-1.049
		l-0.643-2.335c-0.018-0.07-0.091-0.111-0.166-0.094l-0.801,0.211c-0.072,0.018-0.114,0.092-0.096,0.16l0.358,1.299l-1.622-0.911
		c-0.063-0.036-0.147-0.015-0.184,0.047l-0.416,0.702c-0.036,0.062-0.014,0.143,0.05,0.179l1.621,0.913l-1.333,0.348
		c-0.072,0.018-0.114,0.093-0.095,0.161l0.216,0.782c0.018,0.068,0.093,0.111,0.164,0.093l2.396-0.627L41.9,74.5l-1.866,1.051
		l-2.396-0.627c-0.071-0.02-0.146,0.022-0.164,0.093l-0.216,0.782c-0.019,0.07,0.023,0.144,0.095,0.161l1.333,0.348l-1.621,0.913
		c-0.063,0.036-0.085,0.116-0.05,0.179l0.416,0.702c0.037,0.062,0.121,0.083,0.184,0.047l1.622-0.911l-0.358,1.299
		c-0.019,0.068,0.023,0.143,0.096,0.16l0.801,0.211c0.074,0.018,0.147-0.023,0.166-0.094l0.643-2.335l1.864-1.049v2.199l-1.753,1.71
		c-0.052,0.051-0.052,0.133,0,0.186l0.589,0.571c0.052,0.053,0.138,0.053,0.189,0l0.976-0.95v1.724c0,0.072,0.062,0.131,0.136,0.131
		h0.83c0.075,0,0.136-0.059,0.136-0.131v-1.724l0.975,0.95c0.052,0.053,0.139,0.053,0.191,0l0.587-0.571
		c0.052-0.053,0.052-0.135,0-0.186l-1.753-1.71V75.43l1.954,1.1l0.643,2.333c0.019,0.07,0.094,0.113,0.165,0.096l0.803-0.21
		c0.072-0.02,0.113-0.093,0.095-0.161l-0.358-1.299l1.533,0.86c0.064,0.036,0.146,0.015,0.182-0.047l0.417-0.702
		C49.019,77.337,48.997,77.257,48.932,77.221z"/>
	<g>
		<path style="fill:#00E1FF;" d="M35.41,66.149l-3.131-1.79l2.726-0.723c0.146-0.038,0.234-0.188,0.195-0.335l-0.441-1.623
			c-0.038-0.145-0.19-0.233-0.336-0.193l-4.899,1.3l-3.998-2.283l3.998-2.288l4.899,1.301c0.146,0.04,0.298-0.049,0.336-0.192
			l0.441-1.626c0.039-0.144-0.049-0.293-0.195-0.333l-2.726-0.722l3.131-1.79c0.133-0.075,0.177-0.242,0.102-0.372l-0.85-1.457
			c-0.075-0.131-0.245-0.175-0.375-0.1l-3.133,1.788l0.732-2.696c0.038-0.146-0.049-0.296-0.195-0.335l-1.642-0.434
			c-0.146-0.041-0.298,0.046-0.338,0.19l-1.312,4.852l-3.999,2.283v-4.36l3.587-3.551c0.108-0.104,0.108-0.279,0-0.384l-1.201-1.188
			c-0.108-0.106-0.284-0.106-0.39,0l-1.996,1.974v-3.789c0-0.149-0.124-0.272-0.275-0.272h-1.7c-0.151,0-0.275,0.123-0.275,0.272
			v3.789l-1.995-1.974c-0.107-0.106-0.282-0.106-0.389,0l-1.203,1.188c-0.105,0.104-0.105,0.279,0,0.384l3.587,3.551v4.36
			l-3.815-2.181l-1.312-4.848c-0.038-0.146-0.19-0.233-0.338-0.192l-1.64,0.436c-0.146,0.037-0.235,0.188-0.195,0.333l0.73,2.696
			l-3.314-1.893c-0.131-0.075-0.302-0.031-0.377,0.1l-0.851,1.457c-0.075,0.13-0.03,0.297,0.101,0.372l3.315,1.894l-2.726,0.722
			c-0.146,0.041-0.234,0.19-0.194,0.336l0.439,1.623c0.04,0.145,0.191,0.233,0.336,0.192l4.901-1.298l3.813,2.182l-3.813,2.179
			l-4.901-1.302c-0.145-0.038-0.296,0.05-0.336,0.193l-0.439,1.626c-0.04,0.146,0.047,0.294,0.194,0.333l2.727,0.724l-3.317,1.895
			c-0.13,0.075-0.176,0.241-0.101,0.371l0.851,1.458c0.075,0.13,0.246,0.175,0.377,0.099l3.314-1.893l-0.73,2.696
			c-0.04,0.146,0.049,0.296,0.195,0.334l1.64,0.436c0.148,0.038,0.3-0.047,0.338-0.192l1.312-4.849l3.815-2.181v4.57l-3.587,3.55
			c-0.105,0.104-0.105,0.277,0,0.385l1.203,1.188c0.106,0.108,0.282,0.108,0.389,0l1.995-1.975v3.581
			c0,0.149,0.124,0.272,0.275,0.272h1.7c0.151,0,0.275-0.123,0.275-0.272v-3.581l1.996,1.975c0.106,0.108,0.282,0.108,0.39,0
			l1.201-1.188c0.108-0.107,0.108-0.28,0-0.385l-3.587-3.55v-4.57l3.999,2.285l1.312,4.849c0.04,0.146,0.192,0.232,0.338,0.193
			l1.642-0.436c0.146-0.038,0.233-0.189,0.195-0.333l-0.732-2.698l3.133,1.788c0.131,0.076,0.3,0.031,0.375-0.099l0.85-1.458
			C35.587,66.391,35.543,66.225,35.41,66.149z"/>
		<g style="opacity:0.2;">
			<path style="fill:#122C3D;" d="M33.466,53.392l-1.63-1.613l-0.012,0.004c0.052,0.064,0.083,0.144,0.061,0.232l-0.732,2.696
				L33.466,53.392z"/>
			<path style="fill:#122C3D;" d="M26.333,49.148l-1.962-1.941c0.007,0.022,0.028,0.04,0.028,0.065v3.789L26.333,49.148z"/>
			<path style="fill:#122C3D;" d="M17.21,58.32l-1.533,0.405c0.674,0.131,1.362,0.226,2.069,0.251V59h0.654L17.21,58.32z"/>
			<path style="fill:#122C3D;" d="M40.703,59l-6.042-5.978l0.85,1.457c0.075,0.13,0.031,0.297-0.102,0.372l-3.131,1.79l2.726,0.722
				c0.146,0.04,0.234,0.189,0.195,0.333L34.847,59H40.703z"/>
			<polygon style="fill:#122C3D;" points="29.523,58.214 28.148,59 32.485,59 			"/>
			<polygon style="fill:#122C3D;" points="22.149,58.571 22.149,56.653 17.035,51.594 18.334,56.391 			"/>
			<path style="fill:#122C3D;" d="M29.585,51.896l-1.542-1.525l-0.025-0.016c0.051,0.103,0.053,0.222-0.033,0.305l-3.587,3.551v4.36
				l3.999-2.283L29.585,51.896z"/>
		</g>
	</g>
	<g>
		<path style="fill:#00E1FF;" d="M75.773,66.149l-3.034-1.79l2.641-0.723c0.142-0.038,0.227-0.188,0.189-0.335l-0.428-1.623
			c-0.037-0.145-0.184-0.233-0.326-0.193l-4.747,1.3l-3.874-2.283l3.874-2.288l4.747,1.301c0.142,0.04,0.289-0.049,0.326-0.192
			l0.428-1.626c0.037-0.144-0.048-0.293-0.189-0.333l-2.641-0.722l3.034-1.79c0.128-0.075,0.171-0.242,0.098-0.372l-0.824-1.457
			c-0.073-0.131-0.237-0.175-0.364-0.1l-3.036,1.788l0.709-2.696c0.037-0.146-0.048-0.296-0.189-0.335l-1.59-0.434
			c-0.142-0.041-0.289,0.046-0.328,0.19l-1.272,4.852l-3.873,2.283v-4.36l3.475-3.551c0.104-0.104,0.104-0.279,0-0.384l-1.164-1.188
			c-0.104-0.106-0.275-0.106-0.378,0l-1.934,1.974v-3.789c0-0.149-0.12-0.272-0.267-0.272h-1.646c-0.147,0-0.267,0.123-0.267,0.272
			v3.789l-1.934-1.974c-0.104-0.106-0.273-0.106-0.376,0l-1.166,1.188c-0.103,0.104-0.103,0.279,0,0.384l3.476,3.551v4.36
			l-3.697-2.181l-1.271-4.848c-0.037-0.146-0.184-0.233-0.328-0.192l-1.589,0.436c-0.142,0.037-0.228,0.188-0.189,0.333l0.708,2.696
			l-3.211-1.893c-0.127-0.075-0.292-0.031-0.365,0.1l-0.824,1.457c-0.072,0.13-0.029,0.297,0.098,0.372l3.212,1.894l-2.641,0.722
			c-0.142,0.041-0.227,0.19-0.188,0.336l0.426,1.623c0.039,0.145,0.186,0.233,0.326,0.192l4.749-1.298l3.694,2.182l-3.694,2.179
			l-4.749-1.302c-0.14-0.038-0.287,0.05-0.326,0.193l-0.426,1.626c-0.039,0.146,0.046,0.294,0.188,0.333l2.642,0.724l-3.213,1.895
			c-0.126,0.075-0.17,0.241-0.098,0.371l0.824,1.458c0.073,0.13,0.238,0.175,0.365,0.099l3.211-1.893l-0.708,2.696
			c-0.039,0.146,0.047,0.296,0.189,0.334l1.589,0.436c0.144,0.038,0.291-0.047,0.328-0.192l1.271-4.849l3.697-2.181v4.57
			l-3.476,3.55c-0.103,0.104-0.103,0.277,0,0.385l1.166,1.188c0.103,0.108,0.273,0.108,0.376,0l1.934-1.975v3.581
			c0,0.149,0.12,0.272,0.267,0.272h1.646c0.146,0,0.267-0.123,0.267-0.272v-3.581l1.934,1.975c0.103,0.108,0.273,0.108,0.378,0
			l1.164-1.188c0.104-0.107,0.104-0.28,0-0.385l-3.475-3.55v-4.57l3.873,2.285l1.272,4.849c0.039,0.146,0.186,0.232,0.328,0.193
			l1.59-0.436c0.142-0.038,0.226-0.189,0.189-0.333l-0.709-2.698l3.036,1.788c0.127,0.076,0.291,0.031,0.364-0.099l0.824-1.458
			C75.944,66.391,75.901,66.225,75.773,66.149z"/>
		<g style="opacity:0.2;">
			<polygon style="fill:#122C3D;" points="59.275,59 58.123,58.32 55.638,59 			"/>
			<path style="fill:#122C3D;" d="M70.052,58.214L68.72,59h0.812v-0.036c0.772-0.033,1.523-0.137,2.263-0.272L70.052,58.214z"/>
			<path style="fill:#122C3D;" d="M75.031,53.022l0.824,1.457c0.073,0.13,0.03,0.297-0.099,0.372l-3.034,1.79l2.641,0.722
				c0.09,0.025,0.142,0.1,0.169,0.184c0.891-0.4,1.736-0.881,2.532-1.427L75.031,53.022z"/>
			<polygon style="fill:#122C3D;" points="62.909,58.571 62.909,56.653 57.954,51.594 59.212,56.391 			"/>
			<path style="fill:#122C3D;" d="M65.088,54.211v4.36l3.874-2.283l1.151-4.392l-1.494-1.525l-0.024-0.016
				c0.024,0.05,0.04,0.097,0.031,0.15c-0.002,0.057-0.019,0.109-0.062,0.154L65.088,54.211z"/>
			<path style="fill:#122C3D;" d="M73.872,53.392l-1.579-1.613l-0.012,0.004c0.051,0.066,0.082,0.144,0.06,0.232l-0.71,2.696
				L73.872,53.392z"/>
			<path style="fill:#122C3D;" d="M65.088,51.062l1.875-1.913l-1.901-1.941c0.007,0.022,0.026,0.04,0.026,0.065V51.062z"/>
		</g>
	</g>
</g>
</svg>
