<?xml version="1.0" encoding="utf-8"?>
<!-- Generator: Adobe Illustrator 16.0.4, SVG Export Plug-In . SVG Version: 6.00 Build 0)  -->
<!DOCTYPE svg PUBLIC "-//W3C//DTD SVG 1.0//EN" "http://www.w3.org/TR/2001/REC-SVG-20010904/DTD/svg10.dtd">
<svg version="1.0" id="Layer_1" xmlns="http://www.w3.org/2000/svg" xmlns:xlink="http://www.w3.org/1999/xlink" x="0px" y="0px"
	 width="90px" height="90px" viewBox="0 0 90 90" style="enable-background:new 0 0 90 90;" xml:space="preserve">
<g>
	<polygon style="fill:#FFDA24;" points="51.734,54 37.253,54 30.877,69.987 41.108,69.987 34.853,86.962 55.123,64.165 
		44.954,64.165 	"/>
	<polygon style="fill:#FFA300;" points="52.581,52.768 38.653,50.805 37.237,54.037 45.919,62.72 	"/>
	<path style="fill:#FFFFFF;" d="M70.12,22.18C68.855,12.017,60.136,4.132,49.511,4.012C49.429,4.009,49.348,4,49.265,4
		c-9.339,0-17.243,6.004-19.986,14.303c-5.251,1.149-9.531,4.803-11.495,9.633C10.684,28.173,5,33.903,5,40.954
		c0,7.044,5.665,12.764,12.745,13.022V54h31.766h20.021v-0.036C78.137,53.596,85,46.626,85,38.057
		C85,29.685,78.445,22.832,70.12,22.18z"/>
	<g>
		<path style="fill:#F2F4F9;" d="M70.12,22.18C68.855,12.017,60.136,4.132,49.511,4.012V54h20.021v-0.036
			C78.137,53.596,85,46.626,85,38.057C85,29.685,78.445,22.832,70.12,22.18z"/>
	</g>
	<path style="fill:#00E1FF;" d="M33.04,44.73c-0.179-0.179-0.474-0.239-0.845-0.142l-12.784,3.435l-1.083,0.291
		c-1.269,0.415-2.463,1.12-3.472,2.129c-3.443,3.443-3.445,9.027,0,12.471c3.442,3.439,9.025,3.439,12.469,0
		c1.006-1.007,1.71-2.198,2.13-3.466l0.293-1.095l3.433-12.781C33.279,45.206,33.219,44.908,33.04,44.73z"/>
	<g>
		<path style="fill:#00C6F4;" d="M29.455,59.448l0.293-1.095l3.433-12.781c0.099-0.366,0.038-0.664-0.141-0.842L14.856,62.914
			c3.442,3.439,9.025,3.439,12.469,0C28.331,61.907,29.035,60.716,29.455,59.448z"/>
	</g>
	<path style="opacity:0.2;fill:#122C3D;" d="M30.917,54H42.31l-9.27-9.27c0.179,0.178,0.239,0.476,0.141,0.842L30.917,54z"/>
	<path style="opacity:0.2;fill:#122C3D;" d="M72.428,53.571c1.91-0.428,3.686-1.192,5.271-2.221l-3.974-3.975
		c0.178,0.179,0.24,0.475,0.141,0.846L72.428,53.571z"/>
	<path style="fill:#00E1FF;" d="M73.726,47.376c-0.178-0.178-0.472-0.239-0.844-0.141L60.099,50.67l-1.085,0.291
		c-1.27,0.417-2.464,1.122-3.472,2.129c-3.443,3.443-3.443,9.026,0,12.47c3.444,3.444,9.026,3.444,12.471,0
		c1.006-1.007,1.71-2.197,2.13-3.464L70.434,61l3.433-12.778C73.966,47.851,73.903,47.555,73.726,47.376z"/>
	<g>
		<path style="fill:#00C6F4;" d="M70.143,62.096L70.434,61l3.433-12.778c0.1-0.371,0.037-0.667-0.141-0.846L55.542,65.56
			c3.444,3.444,9.026,3.444,12.471,0C69.019,64.553,69.723,63.362,70.143,62.096z"/>
	</g>
</g>
</svg>
