<?xml version="1.0" encoding="utf-8"?>
<!-- Generator: Adobe Illustrator 16.0.4, SVG Export Plug-In . SVG Version: 6.00 Build 0)  -->
<!DOCTYPE svg PUBLIC "-//W3C//DTD SVG 1.0//EN" "http://www.w3.org/TR/2001/REC-SVG-20010904/DTD/svg10.dtd">
<svg version="1.0" id="Layer_1" xmlns="http://www.w3.org/2000/svg" xmlns:xlink="http://www.w3.org/1999/xlink" x="0px" y="0px"
	 width="90px" height="90px" viewBox="0 0 90 90" style="enable-background:new 0 0 90 90;" xml:space="preserve">
<path style="fill:#FFFFFF;" d="M69.992,4C66.081,4,55.23,4,44.03,4C35.39,4,26.539,4,20.505,4
	c-9.402,30.329,28.475,48.862,24.516,82c0.013-0.013,0.022-0.025,0.033-0.038C60.828,69.116,47.735,43.885,59,27.5
	C64.5,19.5,70.5,17.5,69.992,4z"/>
<g>
	<path style="fill:#F2F4F9;" d="M69.992,4C66.081,4,55.23,4,44.03,4c-11.864,23.562,12.314,48.81,1.023,81.962
		C60.828,69.116,47.735,43.885,59,27.5C64.5,19.5,70.5,17.5,69.992,4z"/>
</g>
</svg>
