<?xml version="1.0" encoding="utf-8"?>
<!-- Generator: Adobe Illustrator 16.0.4, SVG Export Plug-In . SVG Version: 6.00 Build 0)  -->
<!DOCTYPE svg PUBLIC "-//W3C//DTD SVG 1.0//EN" "http://www.w3.org/TR/2001/REC-SVG-20010904/DTD/svg10.dtd">
<svg version="1.0" id="Layer_1" xmlns="http://www.w3.org/2000/svg" xmlns:xlink="http://www.w3.org/1999/xlink" x="0px" y="0px"
	 width="90px" height="90px" viewBox="0 0 90 90" style="enable-background:new 0 0 90 90;" xml:space="preserve">
<g>
	<g>
		<path style="fill:#00E1FF;" d="M47,34.943c0,0.528-0.475,0.96-1.05,0.96H12.05c-0.578,0-1.05-0.432-1.05-0.96v-2.079
			c0-0.528,0.473-0.961,1.05-0.961H45.95c0.576,0,1.05,0.433,1.05,0.961V34.943z"/>
	</g>
	<g>
		<path style="fill:#00E1FF;" d="M48,59.943c0,0.526-0.475,0.96-1.05,0.96H13.05c-0.578,0-1.05-0.434-1.05-0.96v-2.076
			c0-0.527,0.473-0.964,1.05-0.964H46.95c0.576,0,1.05,0.437,1.05,0.964V59.943z"/>
	</g>
	<g>
		<path style="fill:#00E1FF;" d="M54,46.946c0,0.527-0.465,0.957-1.037,0.957H31.035c-0.569,0-1.035-0.43-1.035-0.957v-2.083
			c0-0.526,0.466-0.96,1.035-0.96h21.928c0.572,0,1.037,0.434,1.037,0.96V46.946z"/>
	</g>
	<path style="fill:#98D24D;" d="M74.782,35.288c0,0,3.225-0.726,4.218-1.404c-0.033,0.004-1.472-1.796-5.262-2.724
		c1.263-0.547,1.263-0.547,1.263-0.547s-0.281-0.648-2.117-1.171c-0.093-0.363,1.251-2.04,1.292-2.919
		c-0.489,0.135-0.489,0.135-0.489,0.135s0.174-1.35,0.184-1.947C73.5,24.649,73.5,24.649,73.5,24.649s0.72-1.585,0.431-3.727
		c-0.184-1.193-0.184-1.193-0.184-1.193l-0.287,0.357l0.277-0.354c0,0,0,0-1.205,0.106c-2.148,0.228-3.516,1.305-3.516,1.305
		s0,0-0.151-0.347c-0.579,0.152-1.846,0.642-1.846,0.642s0,0,0.014-0.507c-0.842,0.25-2.151,1.95-2.526,1.95
		c-0.945-1.658-1.642-1.776-1.642-1.776s0,0-0.231,1.354c-1.802-3.458-3.894-4.428-3.899-4.46c-0.419,1.126-0.359,4.432-0.359,4.432
		s0,0-0.688-0.42c-0.406,1.106,0.029,3.085,0.029,3.085s-0.792-0.301-1.669-0.463c-0.149,1.049,0.188,1.562,0.495,2.34
		c-0.19-0.031-0.194-0.073-1.541-0.116c-1.794-0.075-2.834,1.079-2.834,1.079s0,0,0.33,0.877c0.961,2.784,2.926,3.025,2.926,3.025
		s0,0-1.257,0.064c0.811,1.762,2.815,1.657,2.815,1.657s0,0-0.98,0.31c1.234,1.562,3.071,1.521,3.071,1.521s0,0-0.555,0.385
		c0.421,0.403,1.52,0.363,2.196,0.352c-0.161,0.151-1.107,0.706-3.69,1.88c-2.581,1.172-3.671,0.969-4.049,1.034
		c-0.378,0.071-0.254,0.443-0.254,0.443s0.002,0.421,0.527,0.395c0.522-0.028,2.46-0.244,5.099-1.756
		c0.987-0.564,1.985-0.969,2.667-1.449c0.155,0.638,0.384,1.409,0.774,1.654c0.24-0.63,0.24-0.63,0.24-0.63s0.396,1.795,2.208,2.62
		c0.07-1.025,0.07-1.025,0.07-1.025s0.374,1.972,2.277,2.342c-0.236-1.237-0.236-1.237-0.236-1.237s0.7,1.851,3.636,2.122
		c0.93,0.109,0.93,0.109,0.93,0.109s0.875-1.283,0.37-3.008c-0.36-1.296-0.401-1.292-0.479-1.469
		c0.829,0.109,1.411,0.316,2.392-0.076c-0.364-0.812-0.844-1.511-0.844-1.511s2.021-0.051,3-0.708
		C74.782,35.288,74.782,35.288,74.782,35.288z"/>
	<g>
		<path style="fill:#83BA36;" d="M71.284,39.621c-0.36-1.296-0.401-1.292-0.479-1.469c0.829,0.109,1.411,0.316,2.392-0.076
			c-0.364-0.812-0.844-1.511-0.844-1.511s2.021-0.051,3-0.708c-0.57-0.569-0.57-0.569-0.57-0.569s3.225-0.726,4.218-1.404
			c-0.033,0.004-1.472-1.796-5.262-2.724c1.263-0.547,1.263-0.547,1.263-0.547s-0.281-0.648-2.117-1.171
			c-0.093-0.363,1.251-2.04,1.292-2.919c-0.489,0.135-0.489,0.135-0.489,0.135s0.174-1.35,0.184-1.947
			C73.5,24.649,73.5,24.649,73.5,24.649s0.72-1.585,0.431-3.727c-0.184-1.193-0.184-1.193-0.184-1.193l-0.287,0.357l0.277-0.354
			L60.713,36.127c-0.161,0.151-1.107,0.706-3.69,1.88c-2.581,1.172-3.671,0.969-4.049,1.034c-0.378,0.071-0.254,0.443-0.254,0.443
			s0.002,0.421,0.527,0.395c0.522-0.028,2.46-0.244,5.099-1.756c0.987-0.564,1.985-0.969,2.667-1.449
			c0.155,0.638,0.384,1.409,0.774,1.654c0.24-0.63,0.24-0.63,0.24-0.63s0.396,1.795,2.208,2.62c0.07-1.025,0.07-1.025,0.07-1.025
			s0.374,1.972,2.277,2.342c-0.236-1.237-0.236-1.237-0.236-1.237s0.7,1.851,3.636,2.122c0.93,0.109,0.93,0.109,0.93,0.109
			S71.789,41.346,71.284,39.621z"/>
	</g>
	<path style="fill:#98D24D;" d="M74.861,63.719c-0.642-4.605-2.532-7.12-3.188-7.904c-7.138-7.21-13.973-1.308-14.808-0.729
		c-4.81-2.041-7.988-1.521-7.988-1.521s-0.211,0.008-0.17,0.202c0.048,0.222,0.209,0.214,0.394,0.202
		c3.681-0.373,7.301,1.42,7.59,1.524c-0.92,1.917-0.951,3.112-0.976,3.749c-0.136,6.174,6.649,7.311,7.373,7.462
		c2.279,0.354,11.938,1.56,12.823,1.797C75.377,67.452,75.189,66.145,74.861,63.719z"/>
	<g>
		<path style="fill:#83BA36;" d="M55.715,59.241c-0.136,6.174,6.649,7.311,7.373,7.462c2.279,0.354,11.938,1.56,12.823,1.797
			c0,0-7.708-8.394-19.22-13.008C55.771,57.409,55.74,58.604,55.715,59.241z"/>
	</g>
</g>
</svg>
